<svg width="1024" height="1024" viewBox="0 0 1024 1024" fill="none" xmlns="http://www.w3.org/2000/svg">
  <defs>
    <linearGradient id="bg" x1="128" y1="96" x2="896" y2="928" gradientUnits="userSpaceOnUse">
      <stop stop-color="#0F172A"/>
      <stop offset="1" stop-color="#08111F"/>
    </linearGradient>
    <linearGradient id="accent" x1="252" y1="176" x2="748" y2="848" gradientUnits="userSpaceOnUse">
      <stop stop-color="#34D399"/>
      <stop offset="1" stop-color="#22C55E"/>
    </linearGradient>
    <linearGradient id="wave" x1="240" y1="512" x2="784" y2="512" gradientUnits="userSpaceOnUse">
      <stop stop-color="#93C5FD"/>
      <stop offset="1" stop-color="#38BDF8"/>
    </linearGradient>
  </defs>
  <rect x="64" y="64" width="896" height="896" rx="224" fill="url(#bg)"/>
  <rect x="160" y="160" width="704" height="704" rx="176" stroke="#1E293B" stroke-width="20"/>
  <path d="M406 270C406 211.458 453.458 164 512 164C570.542 164 618 211.458 618 270V478C618 536.542 570.542 584 512 584C453.458 584 406 536.542 406 478V270Z" fill="url(#accent)"/>
  <path d="M336 462C336 555.888 412.112 632 506 632H518C611.888 632 688 555.888 688 462" stroke="#E2E8F0" stroke-width="44" stroke-linecap="round"/>
  <path d="M512 632V756" stroke="#E2E8F0" stroke-width="44" stroke-linecap="round"/>
  <path d="M420 784H604" stroke="#E2E8F0" stroke-width="44" stroke-linecap="round"/>
  <path d="M248 708C296 636 344 780 392 708C440 636 488 780 536 708C584 636 632 780 680 708C714 657 747 675 776 708" stroke="url(#wave)" stroke-width="34" stroke-linecap="round" stroke-linejoin="round"/>
  <circle cx="760" cy="282" r="34" fill="#34D399"/>
  <circle cx="808" cy="330" r="18" fill="#38BDF8"/>
</svg>
